<mxfile host="app.diagrams.net" modified="2023-12-14T12:13:03.786Z" agent="Mozilla/5.0 (Windows NT 10.0; Win64; x64) AppleWebKit/537.36 (KHTML, like Gecko) Chrome/120.0.0.0 Safari/537.36 Edg/120.0.0.0" etag="evVkJinpP3wcS-l_53gz" version="22.1.8" type="github">
  <diagram name="Page-1" id="rY_K6makJV8tmEoLIjzd">
    <mxGraphModel dx="3831" dy="836" grid="0" gridSize="10" guides="1" tooltips="1" connect="1" arrows="1" fold="1" page="0" pageScale="1" pageWidth="850" pageHeight="1100" math="0" shadow="0">
      <root>
        <mxCell id="0" />
        <mxCell id="1" parent="0" />
        <mxCell id="uzIWKKhnn1AGdui7la-n-1" value="Người dùng(admin)" style="rounded=1;whiteSpace=wrap;html=1;fontSize=16;" parent="1" vertex="1">
          <mxGeometry x="-16" y="36" width="130" height="44" as="geometry" />
        </mxCell>
        <mxCell id="uzIWKKhnn1AGdui7la-n-2" value="" style="endArrow=none;dashed=1;html=1;rounded=0;fontSize=12;startSize=8;endSize=8;edgeStyle=none;curved=1;exitX=1;exitY=1;exitDx=0;exitDy=0;" parent="1" source="uzIWKKhnn1AGdui7la-n-1" edge="1">
          <mxGeometry width="50" height="50" relative="1" as="geometry">
            <mxPoint x="175" y="225" as="sourcePoint" />
            <mxPoint x="1135" y="80" as="targetPoint" />
          </mxGeometry>
        </mxCell>
        <mxCell id="uzIWKKhnn1AGdui7la-n-3" value="" style="endArrow=none;dashed=1;html=1;rounded=0;fontSize=12;startSize=8;endSize=8;edgeStyle=none;curved=1;entryX=0;entryY=1;entryDx=0;entryDy=0;" parent="1" target="uzIWKKhnn1AGdui7la-n-1" edge="1">
          <mxGeometry width="50" height="50" relative="1" as="geometry">
            <mxPoint x="-16" y="1037" as="sourcePoint" />
            <mxPoint x="225" y="175" as="targetPoint" />
          </mxGeometry>
        </mxCell>
        <mxCell id="uzIWKKhnn1AGdui7la-n-7" style="edgeStyle=none;curved=1;rounded=0;orthogonalLoop=1;jettySize=auto;html=1;exitX=0.5;exitY=1;exitDx=0;exitDy=0;entryX=0.5;entryY=0;entryDx=0;entryDy=0;fontSize=12;startSize=8;endSize=8;" parent="1" source="uzIWKKhnn1AGdui7la-n-4" target="uzIWKKhnn1AGdui7la-n-6" edge="1">
          <mxGeometry relative="1" as="geometry" />
        </mxCell>
        <mxCell id="uzIWKKhnn1AGdui7la-n-4" value="Đăng nhập" style="rounded=1;whiteSpace=wrap;html=1;fontSize=16;" parent="1" vertex="1">
          <mxGeometry y="102" width="137" height="48" as="geometry" />
        </mxCell>
        <mxCell id="uzIWKKhnn1AGdui7la-n-81" style="edgeStyle=none;curved=1;rounded=0;orthogonalLoop=1;jettySize=auto;html=1;exitX=0.5;exitY=1;exitDx=0;exitDy=0;entryX=0.5;entryY=0;entryDx=0;entryDy=0;fontSize=12;startSize=8;endSize=8;" parent="1" source="uzIWKKhnn1AGdui7la-n-5" target="uzIWKKhnn1AGdui7la-n-79" edge="1">
          <mxGeometry relative="1" as="geometry" />
        </mxCell>
        <mxCell id="uzIWKKhnn1AGdui7la-n-82" style="edgeStyle=none;curved=1;rounded=0;orthogonalLoop=1;jettySize=auto;html=1;exitX=0.5;exitY=1;exitDx=0;exitDy=0;entryX=1;entryY=0.5;entryDx=0;entryDy=0;fontSize=12;startSize=8;endSize=8;" parent="1" source="uzIWKKhnn1AGdui7la-n-5" target="uzIWKKhnn1AGdui7la-n-78" edge="1">
          <mxGeometry relative="1" as="geometry" />
        </mxCell>
        <mxCell id="uzIWKKhnn1AGdui7la-n-83" style="edgeStyle=none;curved=1;rounded=0;orthogonalLoop=1;jettySize=auto;html=1;exitX=0.5;exitY=1;exitDx=0;exitDy=0;entryX=0;entryY=0.5;entryDx=0;entryDy=0;fontSize=12;startSize=8;endSize=8;" parent="1" source="uzIWKKhnn1AGdui7la-n-5" target="uzIWKKhnn1AGdui7la-n-80" edge="1">
          <mxGeometry relative="1" as="geometry" />
        </mxCell>
        <mxCell id="uzIWKKhnn1AGdui7la-n-5" value="Đăng ký" style="rounded=1;whiteSpace=wrap;html=1;fontSize=16;" parent="1" vertex="1">
          <mxGeometry x="834" y="102" width="137" height="48" as="geometry" />
        </mxCell>
        <mxCell id="uzIWKKhnn1AGdui7la-n-9" style="edgeStyle=none;curved=1;rounded=0;orthogonalLoop=1;jettySize=auto;html=1;exitX=0.5;exitY=1;exitDx=0;exitDy=0;entryX=0.5;entryY=0;entryDx=0;entryDy=0;fontSize=12;startSize=8;endSize=8;" parent="1" source="uzIWKKhnn1AGdui7la-n-6" target="uzIWKKhnn1AGdui7la-n-8" edge="1">
          <mxGeometry relative="1" as="geometry" />
        </mxCell>
        <mxCell id="uzIWKKhnn1AGdui7la-n-6" value="Tài khoản/Mật khẩu" style="rounded=1;whiteSpace=wrap;html=1;fontSize=16;" parent="1" vertex="1">
          <mxGeometry y="169" width="137" height="48" as="geometry" />
        </mxCell>
        <mxCell id="uzIWKKhnn1AGdui7la-n-11" style="edgeStyle=none;curved=1;rounded=0;orthogonalLoop=1;jettySize=auto;html=1;exitX=1;exitY=0.5;exitDx=0;exitDy=0;fontSize=12;startSize=8;endSize=8;" parent="1" source="uzIWKKhnn1AGdui7la-n-8" target="uzIWKKhnn1AGdui7la-n-10" edge="1">
          <mxGeometry relative="1" as="geometry" />
        </mxCell>
        <mxCell id="uzIWKKhnn1AGdui7la-n-15" style="edgeStyle=none;curved=1;rounded=0;orthogonalLoop=1;jettySize=auto;html=1;exitX=1;exitY=0.5;exitDx=0;exitDy=0;entryX=0;entryY=0.5;entryDx=0;entryDy=0;fontSize=12;startSize=8;endSize=8;" parent="1" source="uzIWKKhnn1AGdui7la-n-8" target="uzIWKKhnn1AGdui7la-n-12" edge="1">
          <mxGeometry relative="1" as="geometry" />
        </mxCell>
        <mxCell id="uzIWKKhnn1AGdui7la-n-16" style="edgeStyle=none;curved=1;rounded=0;orthogonalLoop=1;jettySize=auto;html=1;exitX=1;exitY=0.5;exitDx=0;exitDy=0;entryX=0;entryY=0.5;entryDx=0;entryDy=0;fontSize=12;startSize=8;endSize=8;" parent="1" source="uzIWKKhnn1AGdui7la-n-8" target="uzIWKKhnn1AGdui7la-n-13" edge="1">
          <mxGeometry relative="1" as="geometry" />
        </mxCell>
        <mxCell id="uzIWKKhnn1AGdui7la-n-17" style="edgeStyle=none;curved=1;rounded=0;orthogonalLoop=1;jettySize=auto;html=1;exitX=1;exitY=0.5;exitDx=0;exitDy=0;entryX=0;entryY=0.5;entryDx=0;entryDy=0;fontSize=12;startSize=8;endSize=8;" parent="1" source="uzIWKKhnn1AGdui7la-n-8" target="uzIWKKhnn1AGdui7la-n-14" edge="1">
          <mxGeometry relative="1" as="geometry" />
        </mxCell>
        <mxCell id="uzIWKKhnn1AGdui7la-n-8" value="Đăng nhập thành công" style="rounded=1;whiteSpace=wrap;html=1;fontSize=16;" parent="1" vertex="1">
          <mxGeometry y="236" width="137" height="48" as="geometry" />
        </mxCell>
        <mxCell id="uzIWKKhnn1AGdui7la-n-23" style="edgeStyle=none;curved=1;rounded=0;orthogonalLoop=1;jettySize=auto;html=1;exitX=1;exitY=0.5;exitDx=0;exitDy=0;entryX=0;entryY=0.5;entryDx=0;entryDy=0;fontSize=12;startSize=8;endSize=8;" parent="1" source="uzIWKKhnn1AGdui7la-n-10" edge="1">
          <mxGeometry relative="1" as="geometry">
            <mxPoint x="342.5" y="260" as="targetPoint" />
          </mxGeometry>
        </mxCell>
        <mxCell id="uzIWKKhnn1AGdui7la-n-10" value="Quản lý nhân viên" style="rounded=1;whiteSpace=wrap;html=1;fontSize=16;" parent="1" vertex="1">
          <mxGeometry x="156" y="236" width="137" height="48" as="geometry" />
        </mxCell>
        <mxCell id="uzIWKKhnn1AGdui7la-n-27" style="edgeStyle=none;curved=1;rounded=0;orthogonalLoop=1;jettySize=auto;html=1;exitX=1;exitY=0.5;exitDx=0;exitDy=0;entryX=0.5;entryY=1;entryDx=0;entryDy=0;fontSize=12;startSize=8;endSize=8;" parent="1" source="uzIWKKhnn1AGdui7la-n-12" target="uzIWKKhnn1AGdui7la-n-25" edge="1">
          <mxGeometry relative="1" as="geometry" />
        </mxCell>
        <mxCell id="uzIWKKhnn1AGdui7la-n-28" style="edgeStyle=none;curved=1;rounded=0;orthogonalLoop=1;jettySize=auto;html=1;exitX=1;exitY=0.5;exitDx=0;exitDy=0;entryX=0.5;entryY=0;entryDx=0;entryDy=0;fontSize=12;startSize=8;endSize=8;" parent="1" source="uzIWKKhnn1AGdui7la-n-12" target="uzIWKKhnn1AGdui7la-n-26" edge="1">
          <mxGeometry relative="1" as="geometry" />
        </mxCell>
        <mxCell id="uzIWKKhnn1AGdui7la-n-12" value="Quản lý hàng hoá" style="rounded=1;whiteSpace=wrap;html=1;fontSize=16;" parent="1" vertex="1">
          <mxGeometry x="156" y="388.5" width="137" height="48" as="geometry" />
        </mxCell>
        <mxCell id="uzIWKKhnn1AGdui7la-n-44" style="edgeStyle=none;curved=1;rounded=0;orthogonalLoop=1;jettySize=auto;html=1;exitX=1;exitY=0.5;exitDx=0;exitDy=0;entryX=0;entryY=0.5;entryDx=0;entryDy=0;fontSize=12;startSize=8;endSize=8;" parent="1" source="uzIWKKhnn1AGdui7la-n-13" target="uzIWKKhnn1AGdui7la-n-43" edge="1">
          <mxGeometry relative="1" as="geometry" />
        </mxCell>
        <mxCell id="uzIWKKhnn1AGdui7la-n-46" style="edgeStyle=none;curved=1;rounded=0;orthogonalLoop=1;jettySize=auto;html=1;exitX=1;exitY=0.5;exitDx=0;exitDy=0;entryX=0;entryY=0.5;entryDx=0;entryDy=0;fontSize=12;startSize=8;endSize=8;" parent="1" source="uzIWKKhnn1AGdui7la-n-13" target="uzIWKKhnn1AGdui7la-n-45" edge="1">
          <mxGeometry relative="1" as="geometry" />
        </mxCell>
        <mxCell id="uzIWKKhnn1AGdui7la-n-48" style="edgeStyle=none;curved=1;rounded=0;orthogonalLoop=1;jettySize=auto;html=1;exitX=1;exitY=0.5;exitDx=0;exitDy=0;entryX=0;entryY=0.5;entryDx=0;entryDy=0;fontSize=12;startSize=8;endSize=8;" parent="1" source="uzIWKKhnn1AGdui7la-n-13" target="uzIWKKhnn1AGdui7la-n-47" edge="1">
          <mxGeometry relative="1" as="geometry" />
        </mxCell>
        <mxCell id="uzIWKKhnn1AGdui7la-n-13" value="Quản lý đặt hàng" style="rounded=1;whiteSpace=wrap;html=1;fontSize=16;" parent="1" vertex="1">
          <mxGeometry x="156" y="599" width="137" height="48" as="geometry" />
        </mxCell>
        <mxCell id="uzIWKKhnn1AGdui7la-n-51" style="edgeStyle=none;curved=1;rounded=0;orthogonalLoop=1;jettySize=auto;html=1;exitX=1;exitY=0.5;exitDx=0;exitDy=0;entryX=0.5;entryY=1;entryDx=0;entryDy=0;fontSize=12;startSize=8;endSize=8;" parent="1" source="uzIWKKhnn1AGdui7la-n-14" target="uzIWKKhnn1AGdui7la-n-49" edge="1">
          <mxGeometry relative="1" as="geometry" />
        </mxCell>
        <mxCell id="uzIWKKhnn1AGdui7la-n-52" style="edgeStyle=none;curved=1;rounded=0;orthogonalLoop=1;jettySize=auto;html=1;exitX=1;exitY=0.5;exitDx=0;exitDy=0;entryX=0.5;entryY=0;entryDx=0;entryDy=0;fontSize=12;startSize=8;endSize=8;" parent="1" source="uzIWKKhnn1AGdui7la-n-14" target="uzIWKKhnn1AGdui7la-n-50" edge="1">
          <mxGeometry relative="1" as="geometry" />
        </mxCell>
        <mxCell id="uzIWKKhnn1AGdui7la-n-14" value="Thống kê" style="rounded=1;whiteSpace=wrap;html=1;fontSize=16;" parent="1" vertex="1">
          <mxGeometry x="156" y="892" width="137" height="48" as="geometry" />
        </mxCell>
        <mxCell id="uzIWKKhnn1AGdui7la-n-64" style="edgeStyle=none;curved=1;rounded=0;orthogonalLoop=1;jettySize=auto;html=1;exitX=1;exitY=0.5;exitDx=0;exitDy=0;entryX=0;entryY=0.5;entryDx=0;entryDy=0;fontSize=12;startSize=8;endSize=8;" parent="1" source="uzIWKKhnn1AGdui7la-n-25" target="uzIWKKhnn1AGdui7la-n-55" edge="1">
          <mxGeometry relative="1" as="geometry" />
        </mxCell>
        <mxCell id="uzIWKKhnn1AGdui7la-n-25" value="Quản lý loại món" style="ellipse;whiteSpace=wrap;html=1;fontSize=16;" parent="1" vertex="1">
          <mxGeometry x="307" y="341.5" width="121" height="47" as="geometry" />
        </mxCell>
        <mxCell id="uzIWKKhnn1AGdui7la-n-65" style="edgeStyle=none;curved=1;rounded=0;orthogonalLoop=1;jettySize=auto;html=1;exitX=1;exitY=0.5;exitDx=0;exitDy=0;entryX=0;entryY=0.5;entryDx=0;entryDy=0;fontSize=12;startSize=8;endSize=8;" parent="1" source="uzIWKKhnn1AGdui7la-n-26" target="uzIWKKhnn1AGdui7la-n-56" edge="1">
          <mxGeometry relative="1" as="geometry" />
        </mxCell>
        <mxCell id="uzIWKKhnn1AGdui7la-n-26" value="Quản lý món ăn" style="ellipse;whiteSpace=wrap;html=1;fontSize=16;" parent="1" vertex="1">
          <mxGeometry x="307" y="436.5" width="121" height="47" as="geometry" />
        </mxCell>
        <mxCell id="uzIWKKhnn1AGdui7la-n-66" style="edgeStyle=none;curved=1;rounded=0;orthogonalLoop=1;jettySize=auto;html=1;exitX=1;exitY=0.5;exitDx=0;exitDy=0;entryX=0;entryY=0.5;entryDx=0;entryDy=0;fontSize=12;startSize=8;endSize=8;" parent="1" source="uzIWKKhnn1AGdui7la-n-43" target="uzIWKKhnn1AGdui7la-n-57" edge="1">
          <mxGeometry relative="1" as="geometry" />
        </mxCell>
        <mxCell id="uzIWKKhnn1AGdui7la-n-43" value="Quản lý khách hàng" style="ellipse;whiteSpace=wrap;html=1;fontSize=16;" parent="1" vertex="1">
          <mxGeometry x="307" y="552" width="121" height="47" as="geometry" />
        </mxCell>
        <mxCell id="uzIWKKhnn1AGdui7la-n-67" style="edgeStyle=none;curved=1;rounded=0;orthogonalLoop=1;jettySize=auto;html=1;exitX=1;exitY=0.5;exitDx=0;exitDy=0;entryX=0;entryY=0.5;entryDx=0;entryDy=0;fontSize=12;startSize=8;endSize=8;" parent="1" source="uzIWKKhnn1AGdui7la-n-45" target="uzIWKKhnn1AGdui7la-n-59" edge="1">
          <mxGeometry relative="1" as="geometry" />
        </mxCell>
        <mxCell id="uzIWKKhnn1AGdui7la-n-45" value="Quản lý đơn đặt hàng" style="ellipse;whiteSpace=wrap;html=1;fontSize=16;" parent="1" vertex="1">
          <mxGeometry x="307" y="647" width="121" height="47" as="geometry" />
        </mxCell>
        <mxCell id="uzIWKKhnn1AGdui7la-n-68" style="edgeStyle=none;curved=1;rounded=0;orthogonalLoop=1;jettySize=auto;html=1;exitX=1;exitY=0.5;exitDx=0;exitDy=0;entryX=0;entryY=0.5;entryDx=0;entryDy=0;fontSize=12;startSize=8;endSize=8;" parent="1" source="uzIWKKhnn1AGdui7la-n-47" target="uzIWKKhnn1AGdui7la-n-61" edge="1">
          <mxGeometry relative="1" as="geometry" />
        </mxCell>
        <mxCell id="uzIWKKhnn1AGdui7la-n-47" value="Quản lý giao hàng" style="ellipse;whiteSpace=wrap;html=1;fontSize=16;" parent="1" vertex="1">
          <mxGeometry x="307" y="746" width="121" height="47" as="geometry" />
        </mxCell>
        <mxCell id="uzIWKKhnn1AGdui7la-n-71" style="edgeStyle=none;curved=1;rounded=0;orthogonalLoop=1;jettySize=auto;html=1;exitX=1;exitY=0.5;exitDx=0;exitDy=0;entryX=0;entryY=0.5;entryDx=0;entryDy=0;fontSize=12;startSize=8;endSize=8;" parent="1" source="uzIWKKhnn1AGdui7la-n-49" target="uzIWKKhnn1AGdui7la-n-75" edge="1">
          <mxGeometry relative="1" as="geometry">
            <mxPoint x="455" y="868.5" as="targetPoint" />
          </mxGeometry>
        </mxCell>
        <mxCell id="uzIWKKhnn1AGdui7la-n-49" value="Thống kê nhân viên" style="ellipse;whiteSpace=wrap;html=1;fontSize=16;" parent="1" vertex="1">
          <mxGeometry x="307" y="845" width="121" height="47" as="geometry" />
        </mxCell>
        <mxCell id="uzIWKKhnn1AGdui7la-n-74" style="edgeStyle=none;curved=1;rounded=0;orthogonalLoop=1;jettySize=auto;html=1;exitX=1;exitY=0.5;exitDx=0;exitDy=0;entryX=0;entryY=0.5;entryDx=0;entryDy=0;fontSize=12;startSize=8;endSize=8;" parent="1" source="uzIWKKhnn1AGdui7la-n-50" target="uzIWKKhnn1AGdui7la-n-76" edge="1">
          <mxGeometry relative="1" as="geometry">
            <mxPoint x="455" y="963.5" as="targetPoint" />
          </mxGeometry>
        </mxCell>
        <mxCell id="uzIWKKhnn1AGdui7la-n-50" value="Thống kê doanh thu" style="ellipse;whiteSpace=wrap;html=1;fontSize=16;" parent="1" vertex="1">
          <mxGeometry x="307" y="940" width="121" height="47" as="geometry" />
        </mxCell>
        <mxCell id="uzIWKKhnn1AGdui7la-n-54" value="Thêm/Xoá/Sửa" style="rhombus;whiteSpace=wrap;html=1;fontSize=16;" parent="1" vertex="1">
          <mxGeometry x="341" y="220" width="145" height="80" as="geometry" />
        </mxCell>
        <mxCell id="uzIWKKhnn1AGdui7la-n-55" value="Thêm/Xoá/Sửa" style="rhombus;whiteSpace=wrap;html=1;fontSize=16;" parent="1" vertex="1">
          <mxGeometry x="455" y="325" width="145" height="80" as="geometry" />
        </mxCell>
        <mxCell id="uzIWKKhnn1AGdui7la-n-56" value="Thêm/Xoá/Sửa" style="rhombus;whiteSpace=wrap;html=1;fontSize=16;" parent="1" vertex="1">
          <mxGeometry x="455" y="420" width="145" height="80" as="geometry" />
        </mxCell>
        <mxCell id="uzIWKKhnn1AGdui7la-n-57" value="Thêm/Xoá/Sửa" style="rhombus;whiteSpace=wrap;html=1;fontSize=16;" parent="1" vertex="1">
          <mxGeometry x="455" y="535.5" width="145" height="80" as="geometry" />
        </mxCell>
        <mxCell id="uzIWKKhnn1AGdui7la-n-59" value="Thêm/Xoá/Sửa" style="rhombus;whiteSpace=wrap;html=1;fontSize=16;" parent="1" vertex="1">
          <mxGeometry x="455" y="630.5" width="145" height="80" as="geometry" />
        </mxCell>
        <mxCell id="uzIWKKhnn1AGdui7la-n-61" value="Thêm/Xoá/Sửa" style="rhombus;whiteSpace=wrap;html=1;fontSize=16;" parent="1" vertex="1">
          <mxGeometry x="455" y="729.5" width="145" height="80" as="geometry" />
        </mxCell>
        <mxCell id="uzIWKKhnn1AGdui7la-n-75" value="Hiển thị lịch sử đăng nhập app" style="rounded=1;whiteSpace=wrap;html=1;fontSize=16;" parent="1" vertex="1">
          <mxGeometry x="467.5" y="838.5" width="120" height="60" as="geometry" />
        </mxCell>
        <mxCell id="uzIWKKhnn1AGdui7la-n-76" value="Hiển thị tổng doanh thu theo từng ngày" style="rounded=1;whiteSpace=wrap;html=1;fontSize=16;" parent="1" vertex="1">
          <mxGeometry x="467.5" y="933.5" width="120" height="60" as="geometry" />
        </mxCell>
        <mxCell id="uzIWKKhnn1AGdui7la-n-85" style="edgeStyle=none;curved=1;rounded=0;orthogonalLoop=1;jettySize=auto;html=1;exitX=0.5;exitY=1;exitDx=0;exitDy=0;entryX=0.5;entryY=0;entryDx=0;entryDy=0;fontSize=12;startSize=8;endSize=8;" parent="1" source="uzIWKKhnn1AGdui7la-n-78" target="uzIWKKhnn1AGdui7la-n-84" edge="1">
          <mxGeometry relative="1" as="geometry" />
        </mxCell>
        <mxCell id="uzIWKKhnn1AGdui7la-n-78" value="Email" style="rounded=1;whiteSpace=wrap;html=1;fontSize=16;" parent="1" vertex="1">
          <mxGeometry x="697" y="164" width="137" height="48" as="geometry" />
        </mxCell>
        <mxCell id="uzIWKKhnn1AGdui7la-n-86" style="edgeStyle=none;curved=1;rounded=0;orthogonalLoop=1;jettySize=auto;html=1;exitX=0.5;exitY=1;exitDx=0;exitDy=0;fontSize=12;startSize=8;endSize=8;" parent="1" source="uzIWKKhnn1AGdui7la-n-79" edge="1">
          <mxGeometry relative="1" as="geometry">
            <mxPoint x="903" y="330.33330281575536" as="targetPoint" />
          </mxGeometry>
        </mxCell>
        <mxCell id="uzIWKKhnn1AGdui7la-n-79" value="Mật khẩu" style="rounded=1;whiteSpace=wrap;html=1;fontSize=16;" parent="1" vertex="1">
          <mxGeometry x="834" y="232" width="137" height="48" as="geometry" />
        </mxCell>
        <mxCell id="uzIWKKhnn1AGdui7la-n-87" style="edgeStyle=none;curved=1;rounded=0;orthogonalLoop=1;jettySize=auto;html=1;exitX=0.5;exitY=1;exitDx=0;exitDy=0;entryX=0.5;entryY=0;entryDx=0;entryDy=0;fontSize=12;startSize=8;endSize=8;" parent="1" source="uzIWKKhnn1AGdui7la-n-80" target="uzIWKKhnn1AGdui7la-n-84" edge="1">
          <mxGeometry relative="1" as="geometry" />
        </mxCell>
        <mxCell id="uzIWKKhnn1AGdui7la-n-80" value="Xác nhận mật khẩu" style="rounded=1;whiteSpace=wrap;html=1;fontSize=16;" parent="1" vertex="1">
          <mxGeometry x="971" y="164" width="137" height="48" as="geometry" />
        </mxCell>
        <mxCell id="uzIWKKhnn1AGdui7la-n-88" style="edgeStyle=none;curved=1;rounded=0;orthogonalLoop=1;jettySize=auto;html=1;exitX=0;exitY=0.5;exitDx=0;exitDy=0;entryX=1;entryY=0.5;entryDx=0;entryDy=0;fontSize=12;startSize=8;endSize=8;" parent="1" source="uzIWKKhnn1AGdui7la-n-84" target="uzIWKKhnn1AGdui7la-n-4" edge="1">
          <mxGeometry relative="1" as="geometry">
            <Array as="points">
              <mxPoint x="524" y="141" />
            </Array>
          </mxGeometry>
        </mxCell>
        <mxCell id="uzIWKKhnn1AGdui7la-n-84" value="Đăng ký thành công" style="ellipse;whiteSpace=wrap;html=1;aspect=fixed;fontSize=16;" parent="1" vertex="1">
          <mxGeometry x="862.5" y="332" width="80" height="80" as="geometry" />
        </mxCell>
        <mxCell id="uzIWKKhnn1AGdui7la-n-89" value="" style="endArrow=none;dashed=1;html=1;rounded=0;fontSize=12;startSize=8;endSize=8;edgeStyle=none;curved=1;" parent="1" edge="1">
          <mxGeometry width="50" height="50" relative="1" as="geometry">
            <mxPoint x="1134" y="1039" as="sourcePoint" />
            <mxPoint x="1134" y="81" as="targetPoint" />
          </mxGeometry>
        </mxCell>
        <mxCell id="uzIWKKhnn1AGdui7la-n-90" value="" style="endArrow=none;dashed=1;html=1;rounded=0;fontSize=12;startSize=8;endSize=8;edgeStyle=none;curved=1;" parent="1" edge="1">
          <mxGeometry width="50" height="50" relative="1" as="geometry">
            <mxPoint x="-16" y="1038" as="sourcePoint" />
            <mxPoint x="1135" y="1038" as="targetPoint" />
          </mxGeometry>
        </mxCell>
        <mxCell id="uzIWKKhnn1AGdui7la-n-96" style="edgeStyle=none;curved=1;rounded=0;orthogonalLoop=1;jettySize=auto;html=1;exitX=0.5;exitY=1;exitDx=0;exitDy=0;entryX=0.5;entryY=0;entryDx=0;entryDy=0;fontSize=12;startSize=8;endSize=8;" parent="1" source="uzIWKKhnn1AGdui7la-n-91" target="uzIWKKhnn1AGdui7la-n-94" edge="1">
          <mxGeometry relative="1" as="geometry" />
        </mxCell>
        <mxCell id="uzIWKKhnn1AGdui7la-n-91" value="Người dùng(nhân viên)" style="rounded=1;whiteSpace=wrap;html=1;fontSize=16;" parent="1" vertex="1">
          <mxGeometry x="1193" y="36" width="130" height="44" as="geometry" />
        </mxCell>
        <mxCell id="uzIWKKhnn1AGdui7la-n-92" value="" style="endArrow=none;dashed=1;html=1;rounded=0;fontSize=12;startSize=8;endSize=8;edgeStyle=none;curved=1;entryX=1;entryY=1;entryDx=0;entryDy=0;" parent="1" target="uzIWKKhnn1AGdui7la-n-91" edge="1">
          <mxGeometry width="50" height="50" relative="1" as="geometry">
            <mxPoint x="2444" y="80" as="sourcePoint" />
            <mxPoint x="1400" y="141" as="targetPoint" />
          </mxGeometry>
        </mxCell>
        <mxCell id="uzIWKKhnn1AGdui7la-n-93" value="" style="endArrow=none;dashed=1;html=1;rounded=0;fontSize=12;startSize=8;endSize=8;edgeStyle=none;curved=1;entryX=0;entryY=1;entryDx=0;entryDy=0;" parent="1" target="uzIWKKhnn1AGdui7la-n-91" edge="1">
          <mxGeometry width="50" height="50" relative="1" as="geometry">
            <mxPoint x="1193" y="687" as="sourcePoint" />
            <mxPoint x="1400" y="141" as="targetPoint" />
          </mxGeometry>
        </mxCell>
        <mxCell id="uzIWKKhnn1AGdui7la-n-97" style="edgeStyle=none;curved=1;rounded=0;orthogonalLoop=1;jettySize=auto;html=1;exitX=0.5;exitY=1;exitDx=0;exitDy=0;entryX=0.5;entryY=0;entryDx=0;entryDy=0;fontSize=12;startSize=8;endSize=8;" parent="1" source="uzIWKKhnn1AGdui7la-n-94" target="uzIWKKhnn1AGdui7la-n-95" edge="1">
          <mxGeometry relative="1" as="geometry" />
        </mxCell>
        <mxCell id="uzIWKKhnn1AGdui7la-n-94" value="Đăng nhập" style="rounded=1;whiteSpace=wrap;html=1;fontSize=16;" parent="1" vertex="1">
          <mxGeometry x="1202" y="96" width="112" height="41" as="geometry" />
        </mxCell>
        <mxCell id="uzIWKKhnn1AGdui7la-n-99" style="edgeStyle=none;curved=1;rounded=0;orthogonalLoop=1;jettySize=auto;html=1;exitX=0.5;exitY=1;exitDx=0;exitDy=0;entryX=0.5;entryY=0;entryDx=0;entryDy=0;fontSize=12;startSize=8;endSize=8;" parent="1" source="uzIWKKhnn1AGdui7la-n-95" target="uzIWKKhnn1AGdui7la-n-98" edge="1">
          <mxGeometry relative="1" as="geometry" />
        </mxCell>
        <mxCell id="uzIWKKhnn1AGdui7la-n-95" value="Tài khoản/Mật khẩu" style="rounded=1;whiteSpace=wrap;html=1;fontSize=16;" parent="1" vertex="1">
          <mxGeometry x="1202" y="153" width="112" height="41" as="geometry" />
        </mxCell>
        <mxCell id="uzIWKKhnn1AGdui7la-n-101" style="edgeStyle=none;curved=1;rounded=0;orthogonalLoop=1;jettySize=auto;html=1;exitX=0.5;exitY=1;exitDx=0;exitDy=0;entryX=0.5;entryY=0;entryDx=0;entryDy=0;fontSize=12;startSize=8;endSize=8;" parent="1" source="uzIWKKhnn1AGdui7la-n-98" target="uzIWKKhnn1AGdui7la-n-100" edge="1">
          <mxGeometry relative="1" as="geometry" />
        </mxCell>
        <mxCell id="uzIWKKhnn1AGdui7la-n-98" value="Đăng nhập thành công" style="rounded=1;whiteSpace=wrap;html=1;fontSize=16;" parent="1" vertex="1">
          <mxGeometry x="1202" y="210" width="112" height="41" as="geometry" />
        </mxCell>
        <mxCell id="uzIWKKhnn1AGdui7la-n-105" style="edgeStyle=none;curved=1;rounded=0;orthogonalLoop=1;jettySize=auto;html=1;exitX=1;exitY=0.5;exitDx=0;exitDy=0;entryX=0;entryY=0.5;entryDx=0;entryDy=0;fontSize=12;startSize=8;endSize=8;" parent="1" source="uzIWKKhnn1AGdui7la-n-100" target="uzIWKKhnn1AGdui7la-n-102" edge="1">
          <mxGeometry relative="1" as="geometry" />
        </mxCell>
        <mxCell id="uzIWKKhnn1AGdui7la-n-108" style="edgeStyle=none;curved=1;rounded=0;orthogonalLoop=1;jettySize=auto;html=1;exitX=1;exitY=0.5;exitDx=0;exitDy=0;entryX=0;entryY=0.5;entryDx=0;entryDy=0;fontSize=12;startSize=8;endSize=8;" parent="1" source="uzIWKKhnn1AGdui7la-n-100" target="uzIWKKhnn1AGdui7la-n-106" edge="1">
          <mxGeometry relative="1" as="geometry" />
        </mxCell>
        <mxCell id="uzIWKKhnn1AGdui7la-n-116" style="edgeStyle=none;curved=1;rounded=0;orthogonalLoop=1;jettySize=auto;html=1;exitX=1;exitY=0.5;exitDx=0;exitDy=0;entryX=0;entryY=0.5;entryDx=0;entryDy=0;fontSize=12;startSize=8;endSize=8;" parent="1" source="uzIWKKhnn1AGdui7la-n-100" target="uzIWKKhnn1AGdui7la-n-115" edge="1">
          <mxGeometry relative="1" as="geometry" />
        </mxCell>
        <mxCell id="uzIWKKhnn1AGdui7la-n-118" style="edgeStyle=none;curved=1;rounded=0;orthogonalLoop=1;jettySize=auto;html=1;exitX=1;exitY=0.5;exitDx=0;exitDy=0;entryX=0;entryY=0.5;entryDx=0;entryDy=0;fontSize=12;startSize=8;endSize=8;" parent="1" source="uzIWKKhnn1AGdui7la-n-100" target="uzIWKKhnn1AGdui7la-n-117" edge="1">
          <mxGeometry relative="1" as="geometry" />
        </mxCell>
        <mxCell id="uzIWKKhnn1AGdui7la-n-100" value="Hiển thị giao diện nhân viên" style="rounded=1;whiteSpace=wrap;html=1;fontSize=16;" parent="1" vertex="1">
          <mxGeometry x="1202" y="267" width="112" height="41" as="geometry" />
        </mxCell>
        <mxCell id="uzIWKKhnn1AGdui7la-n-104" style="edgeStyle=none;curved=1;rounded=0;orthogonalLoop=1;jettySize=auto;html=1;exitX=1;exitY=0.5;exitDx=0;exitDy=0;entryX=0;entryY=0.5;entryDx=0;entryDy=0;fontSize=12;startSize=8;endSize=8;" parent="1" source="uzIWKKhnn1AGdui7la-n-102" target="uzIWKKhnn1AGdui7la-n-103" edge="1">
          <mxGeometry relative="1" as="geometry" />
        </mxCell>
        <mxCell id="uzIWKKhnn1AGdui7la-n-102" value="Quản lý khách hàng" style="rounded=1;whiteSpace=wrap;html=1;fontSize=16;" parent="1" vertex="1">
          <mxGeometry x="1346" y="267" width="112" height="41" as="geometry" />
        </mxCell>
        <mxCell id="uzIWKKhnn1AGdui7la-n-103" value="Thêm/Sửa/Xoá" style="rhombus;whiteSpace=wrap;html=1;fontSize=16;" parent="1" vertex="1">
          <mxGeometry x="1490" y="247.5" width="143" height="80" as="geometry" />
        </mxCell>
        <mxCell id="uzIWKKhnn1AGdui7la-n-110" style="edgeStyle=none;curved=1;rounded=0;orthogonalLoop=1;jettySize=auto;html=1;exitX=1;exitY=0.5;exitDx=0;exitDy=0;entryX=0;entryY=0.5;entryDx=0;entryDy=0;fontSize=12;startSize=8;endSize=8;" parent="1" source="uzIWKKhnn1AGdui7la-n-106" target="uzIWKKhnn1AGdui7la-n-109" edge="1">
          <mxGeometry relative="1" as="geometry" />
        </mxCell>
        <mxCell id="uzIWKKhnn1AGdui7la-n-106" value="Quản lý đặt hàng" style="rounded=1;whiteSpace=wrap;html=1;fontSize=16;" parent="1" vertex="1">
          <mxGeometry x="1346" y="357" width="112" height="41" as="geometry" />
        </mxCell>
        <mxCell id="uzIWKKhnn1AGdui7la-n-109" value="Thêm/Sửa/Xoá" style="rhombus;whiteSpace=wrap;html=1;fontSize=16;" parent="1" vertex="1">
          <mxGeometry x="1490" y="337.5" width="143" height="80" as="geometry" />
        </mxCell>
        <mxCell id="uzIWKKhnn1AGdui7la-n-111" value="" style="endArrow=none;dashed=1;html=1;rounded=0;fontSize=12;startSize=8;endSize=8;edgeStyle=none;curved=1;exitX=1;exitY=0.5;exitDx=0;exitDy=0;" parent="1" source="uzIWKKhnn1AGdui7la-n-109" edge="1">
          <mxGeometry width="50" height="50" relative="1" as="geometry">
            <mxPoint x="1608" y="379" as="sourcePoint" />
            <mxPoint x="1667" y="378" as="targetPoint" />
          </mxGeometry>
        </mxCell>
        <mxCell id="uzIWKKhnn1AGdui7la-n-114" style="edgeStyle=none;curved=1;rounded=0;orthogonalLoop=1;jettySize=auto;html=1;exitX=1;exitY=0.5;exitDx=0;exitDy=0;entryX=0;entryY=0.5;entryDx=0;entryDy=0;fontSize=12;startSize=8;endSize=8;" parent="1" source="uzIWKKhnn1AGdui7la-n-112" target="uzIWKKhnn1AGdui7la-n-113" edge="1">
          <mxGeometry relative="1" as="geometry" />
        </mxCell>
        <mxCell id="uzIWKKhnn1AGdui7la-n-112" value="Sửa" style="rounded=1;whiteSpace=wrap;html=1;fontSize=16;" parent="1" vertex="1">
          <mxGeometry x="1667" y="357.25" width="45" height="40.5" as="geometry" />
        </mxCell>
        <mxCell id="uzIWKKhnn1AGdui7la-n-128" style="edgeStyle=none;curved=1;rounded=0;orthogonalLoop=1;jettySize=auto;html=1;exitX=1;exitY=0.5;exitDx=0;exitDy=0;fontSize=12;startSize=8;endSize=8;" parent="1" source="uzIWKKhnn1AGdui7la-n-113" target="uzIWKKhnn1AGdui7la-n-127" edge="1">
          <mxGeometry relative="1" as="geometry" />
        </mxCell>
        <mxCell id="uzIWKKhnn1AGdui7la-n-113" value="Hiện thị giao diện bán hàng" style="rounded=1;whiteSpace=wrap;html=1;fontSize=16;" parent="1" vertex="1">
          <mxGeometry x="1737" y="347.5" width="120" height="60" as="geometry" />
        </mxCell>
        <mxCell id="uzIWKKhnn1AGdui7la-n-115" value="Quản lý giao hàng" style="rounded=1;whiteSpace=wrap;html=1;fontSize=16;" parent="1" vertex="1">
          <mxGeometry x="1346" y="442.5" width="112" height="41" as="geometry" />
        </mxCell>
        <mxCell id="uzIWKKhnn1AGdui7la-n-121" style="edgeStyle=none;curved=1;rounded=0;orthogonalLoop=1;jettySize=auto;html=1;exitX=1;exitY=0.5;exitDx=0;exitDy=0;entryX=0;entryY=0.5;entryDx=0;entryDy=0;fontSize=12;startSize=8;endSize=8;" parent="1" source="uzIWKKhnn1AGdui7la-n-117" target="uzIWKKhnn1AGdui7la-n-119" edge="1">
          <mxGeometry relative="1" as="geometry" />
        </mxCell>
        <mxCell id="uzIWKKhnn1AGdui7la-n-117" value="Thống kê" style="rounded=1;whiteSpace=wrap;html=1;fontSize=16;" parent="1" vertex="1">
          <mxGeometry x="1346" y="529" width="112" height="41" as="geometry" />
        </mxCell>
        <mxCell id="uzIWKKhnn1AGdui7la-n-124" style="edgeStyle=none;curved=1;rounded=0;orthogonalLoop=1;jettySize=auto;html=1;exitX=1;exitY=0.5;exitDx=0;exitDy=0;entryX=0;entryY=0.5;entryDx=0;entryDy=0;fontSize=12;startSize=8;endSize=8;" parent="1" source="uzIWKKhnn1AGdui7la-n-119" target="uzIWKKhnn1AGdui7la-n-122" edge="1">
          <mxGeometry relative="1" as="geometry" />
        </mxCell>
        <mxCell id="uzIWKKhnn1AGdui7la-n-126" style="edgeStyle=none;curved=1;rounded=0;orthogonalLoop=1;jettySize=auto;html=1;exitX=1;exitY=0.5;exitDx=0;exitDy=0;entryX=0;entryY=0.5;entryDx=0;entryDy=0;fontSize=12;startSize=8;endSize=8;" parent="1" source="uzIWKKhnn1AGdui7la-n-119" target="uzIWKKhnn1AGdui7la-n-123" edge="1">
          <mxGeometry relative="1" as="geometry" />
        </mxCell>
        <mxCell id="uzIWKKhnn1AGdui7la-n-119" value="Thông tin cá nhân" style="rounded=1;whiteSpace=wrap;html=1;fontSize=16;" parent="1" vertex="1">
          <mxGeometry x="1505.5" y="529" width="112" height="41" as="geometry" />
        </mxCell>
        <mxCell id="uzIWKKhnn1AGdui7la-n-122" value="Đổi mật khẩu" style="rhombus;whiteSpace=wrap;html=1;fontSize=16;" parent="1" vertex="1">
          <mxGeometry x="1661" y="509.5" width="143" height="80" as="geometry" />
        </mxCell>
        <mxCell id="uzIWKKhnn1AGdui7la-n-123" value="Lịch sử đăng nhập" style="rhombus;whiteSpace=wrap;html=1;fontSize=16;" parent="1" vertex="1">
          <mxGeometry x="1661" y="597" width="143" height="80" as="geometry" />
        </mxCell>
        <mxCell id="uzIWKKhnn1AGdui7la-n-131" style="edgeStyle=none;curved=1;rounded=0;orthogonalLoop=1;jettySize=auto;html=1;exitX=1;exitY=0.75;exitDx=0;exitDy=0;entryX=0;entryY=0.5;entryDx=0;entryDy=0;fontSize=12;startSize=8;endSize=8;" parent="1" source="uzIWKKhnn1AGdui7la-n-127" target="uzIWKKhnn1AGdui7la-n-130" edge="1">
          <mxGeometry relative="1" as="geometry" />
        </mxCell>
        <mxCell id="uzIWKKhnn1AGdui7la-n-127" value="_Chỉnh sửa thông tin_&lt;br&gt;MãHD:&lt;br&gt;Bàn:&lt;br&gt;Loại hoá đơn:&lt;br&gt;Giảm giá:&lt;br&gt;_Thông tin hoá đơn_&lt;br&gt;Trạng thái:&lt;br&gt;Tổng:&lt;br&gt;Giảm giá:&lt;br&gt;Phải trả:&lt;br&gt;Đã thanh toán:&lt;br&gt;_Thao tác_&lt;br&gt;Quản lý ship&lt;br&gt;Cập nhật&lt;br&gt;In Hoá Đơn&lt;br&gt;Thanh Toán&lt;br&gt;Đóng&lt;br&gt;Huỷ Hoá Đơn" style="whiteSpace=wrap;html=1;aspect=fixed;fontSize=16;align=left;" parent="1" vertex="1">
          <mxGeometry x="1882" y="130.5" width="353" height="353" as="geometry" />
        </mxCell>
        <mxCell id="uzIWKKhnn1AGdui7la-n-129" value="_Danh sách món ăn_&lt;br&gt;Sandwich&lt;br&gt;Hotdog&lt;br&gt;Kebab&lt;br&gt;Coffee&lt;br&gt;Cacao" style="text;html=1;align=left;verticalAlign=middle;resizable=0;points=[];autosize=1;strokeColor=none;fillColor=none;fontSize=16;" parent="1" vertex="1">
          <mxGeometry x="2065" y="129.5" width="170" height="127" as="geometry" />
        </mxCell>
        <mxCell id="uzIWKKhnn1AGdui7la-n-130" value="Danh sách món đã đặt" style="rounded=1;whiteSpace=wrap;html=1;fontSize=16;" parent="1" vertex="1">
          <mxGeometry x="2294" y="342" width="120" height="60" as="geometry" />
        </mxCell>
        <mxCell id="uzIWKKhnn1AGdui7la-n-132" value="" style="endArrow=none;dashed=1;html=1;rounded=0;fontSize=12;startSize=8;endSize=8;edgeStyle=none;curved=1;" parent="1" edge="1">
          <mxGeometry width="50" height="50" relative="1" as="geometry">
            <mxPoint x="1192" y="686" as="sourcePoint" />
            <mxPoint x="2438" y="690" as="targetPoint" />
          </mxGeometry>
        </mxCell>
        <mxCell id="uzIWKKhnn1AGdui7la-n-133" value="" style="endArrow=none;dashed=1;html=1;rounded=0;fontSize=12;startSize=8;endSize=8;edgeStyle=none;curved=1;" parent="1" edge="1">
          <mxGeometry width="50" height="50" relative="1" as="geometry">
            <mxPoint x="2441" y="690" as="sourcePoint" />
            <mxPoint x="2441" y="82" as="targetPoint" />
          </mxGeometry>
        </mxCell>
        <mxCell id="hU77d2BvjfXM9u0-Pfxk-16" style="edgeStyle=none;curved=1;rounded=0;orthogonalLoop=1;jettySize=auto;html=1;exitX=0.5;exitY=0.5;exitDx=0;exitDy=0;exitPerimeter=0;entryX=0;entryY=0.5;entryDx=0;entryDy=0;fontSize=12;startSize=8;endSize=8;" parent="1" source="hU77d2BvjfXM9u0-Pfxk-1" target="hU77d2BvjfXM9u0-Pfxk-12" edge="1">
          <mxGeometry relative="1" as="geometry">
            <Array as="points">
              <mxPoint x="-1192" y="503" />
            </Array>
          </mxGeometry>
        </mxCell>
        <mxCell id="hU77d2BvjfXM9u0-Pfxk-17" style="edgeStyle=none;curved=1;rounded=0;orthogonalLoop=1;jettySize=auto;html=1;exitX=0.5;exitY=0.5;exitDx=0;exitDy=0;exitPerimeter=0;entryX=0;entryY=0.5;entryDx=0;entryDy=0;fontSize=12;startSize=8;endSize=8;" parent="1" source="hU77d2BvjfXM9u0-Pfxk-1" target="hU77d2BvjfXM9u0-Pfxk-13" edge="1">
          <mxGeometry relative="1" as="geometry">
            <Array as="points">
              <mxPoint x="-1190" y="533" />
            </Array>
          </mxGeometry>
        </mxCell>
        <mxCell id="hU77d2BvjfXM9u0-Pfxk-24" style="edgeStyle=none;curved=1;rounded=0;orthogonalLoop=1;jettySize=auto;html=1;exitX=0.5;exitY=0.5;exitDx=0;exitDy=0;exitPerimeter=0;entryX=0;entryY=0.5;entryDx=0;entryDy=0;fontSize=12;startSize=8;endSize=8;" parent="1" source="hU77d2BvjfXM9u0-Pfxk-1" target="hU77d2BvjfXM9u0-Pfxk-23" edge="1">
          <mxGeometry relative="1" as="geometry">
            <Array as="points">
              <mxPoint x="-1372" y="555" />
            </Array>
          </mxGeometry>
        </mxCell>
        <mxCell id="hU77d2BvjfXM9u0-Pfxk-29" style="edgeStyle=none;curved=1;rounded=0;orthogonalLoop=1;jettySize=auto;html=1;exitX=0.5;exitY=0.5;exitDx=0;exitDy=0;exitPerimeter=0;entryX=0;entryY=0.5;entryDx=0;entryDy=0;fontSize=12;startSize=8;endSize=8;" parent="1" source="hU77d2BvjfXM9u0-Pfxk-1" target="hU77d2BvjfXM9u0-Pfxk-28" edge="1">
          <mxGeometry relative="1" as="geometry">
            <Array as="points">
              <mxPoint x="-1411" y="598" />
            </Array>
          </mxGeometry>
        </mxCell>
        <mxCell id="hU77d2BvjfXM9u0-Pfxk-1" value="Customer" style="shape=umlActor;verticalLabelPosition=bottom;verticalAlign=top;html=1;outlineConnect=0;fontSize=16;" parent="1" vertex="1">
          <mxGeometry x="-1270" y="439.5" width="30" height="60" as="geometry" />
        </mxCell>
        <mxCell id="hU77d2BvjfXM9u0-Pfxk-14" style="edgeStyle=none;curved=1;rounded=0;orthogonalLoop=1;jettySize=auto;html=1;exitX=0.5;exitY=1;exitDx=0;exitDy=0;entryX=0.5;entryY=0;entryDx=0;entryDy=0;fontSize=12;startSize=8;endSize=8;" parent="1" source="hU77d2BvjfXM9u0-Pfxk-2" target="hU77d2BvjfXM9u0-Pfxk-12" edge="1">
          <mxGeometry relative="1" as="geometry" />
        </mxCell>
        <mxCell id="hU77d2BvjfXM9u0-Pfxk-2" value="Restaurant" style="ellipse;whiteSpace=wrap;html=1;aspect=fixed;fontSize=16;" parent="1" vertex="1">
          <mxGeometry x="-1132" y="429.5" width="80" height="80" as="geometry" />
        </mxCell>
        <mxCell id="mNHQuMKC3dcyN6bttDQ8-5" style="edgeStyle=none;curved=1;rounded=0;orthogonalLoop=1;jettySize=auto;html=1;exitX=1;exitY=1;exitDx=0;exitDy=0;exitPerimeter=0;entryX=0;entryY=0.5;entryDx=0;entryDy=0;fontSize=12;startSize=8;endSize=8;" edge="1" parent="1" source="hU77d2BvjfXM9u0-Pfxk-4" target="mNHQuMKC3dcyN6bttDQ8-4">
          <mxGeometry relative="1" as="geometry" />
        </mxCell>
        <mxCell id="mNHQuMKC3dcyN6bttDQ8-7" style="edgeStyle=none;curved=1;rounded=0;orthogonalLoop=1;jettySize=auto;html=1;exitX=0.5;exitY=0;exitDx=0;exitDy=0;exitPerimeter=0;entryX=0.5;entryY=1;entryDx=0;entryDy=0;fontSize=12;startSize=8;endSize=8;" edge="1" parent="1" source="hU77d2BvjfXM9u0-Pfxk-4" target="mNHQuMKC3dcyN6bttDQ8-6">
          <mxGeometry relative="1" as="geometry" />
        </mxCell>
        <mxCell id="hU77d2BvjfXM9u0-Pfxk-4" value="Employee" style="shape=umlActor;verticalLabelPosition=bottom;verticalAlign=top;html=1;outlineConnect=0;fontSize=16;" parent="1" vertex="1">
          <mxGeometry x="-911" y="440" width="30" height="60" as="geometry" />
        </mxCell>
        <mxCell id="hU77d2BvjfXM9u0-Pfxk-6" value="" style="endArrow=classic;html=1;rounded=0;fontSize=12;startSize=8;endSize=8;edgeStyle=none;curved=1;exitX=0.5;exitY=0.5;exitDx=0;exitDy=0;exitPerimeter=0;" parent="1" source="hU77d2BvjfXM9u0-Pfxk-1" target="hU77d2BvjfXM9u0-Pfxk-2" edge="1">
          <mxGeometry relative="1" as="geometry">
            <mxPoint x="-995" y="562" as="sourcePoint" />
            <mxPoint x="-895" y="562" as="targetPoint" />
          </mxGeometry>
        </mxCell>
        <mxCell id="hU77d2BvjfXM9u0-Pfxk-7" value="&amp;lt;&amp;lt;include&amp;gt;&amp;gt;" style="edgeLabel;resizable=0;html=1;align=center;verticalAlign=middle;fontSize=16;" parent="hU77d2BvjfXM9u0-Pfxk-6" connectable="0" vertex="1">
          <mxGeometry relative="1" as="geometry" />
        </mxCell>
        <mxCell id="hU77d2BvjfXM9u0-Pfxk-8" value="" style="endArrow=classic;html=1;rounded=0;fontSize=12;startSize=8;endSize=8;edgeStyle=none;curved=1;entryX=1;entryY=0.5;entryDx=0;entryDy=0;exitX=0.5;exitY=0.5;exitDx=0;exitDy=0;exitPerimeter=0;" parent="1" source="hU77d2BvjfXM9u0-Pfxk-4" target="hU77d2BvjfXM9u0-Pfxk-2" edge="1">
          <mxGeometry relative="1" as="geometry">
            <mxPoint x="-995" y="562" as="sourcePoint" />
            <mxPoint x="-895" y="562" as="targetPoint" />
          </mxGeometry>
        </mxCell>
        <mxCell id="hU77d2BvjfXM9u0-Pfxk-9" value="&amp;lt;&amp;lt;include&amp;gt;&amp;gt;" style="edgeLabel;resizable=0;html=1;align=center;verticalAlign=middle;fontSize=16;" parent="hU77d2BvjfXM9u0-Pfxk-8" connectable="0" vertex="1">
          <mxGeometry relative="1" as="geometry" />
        </mxCell>
        <mxCell id="hU77d2BvjfXM9u0-Pfxk-15" style="edgeStyle=none;curved=1;rounded=0;orthogonalLoop=1;jettySize=auto;html=1;exitX=0.5;exitY=1;exitDx=0;exitDy=0;fontSize=12;startSize=8;endSize=8;" parent="1" source="hU77d2BvjfXM9u0-Pfxk-12" target="hU77d2BvjfXM9u0-Pfxk-13" edge="1">
          <mxGeometry relative="1" as="geometry" />
        </mxCell>
        <mxCell id="hU77d2BvjfXM9u0-Pfxk-12" value="Table" style="rounded=1;whiteSpace=wrap;html=1;fontSize=16;" parent="1" vertex="1">
          <mxGeometry x="-1152.25" y="532" width="120.5" height="41" as="geometry" />
        </mxCell>
        <mxCell id="hU77d2BvjfXM9u0-Pfxk-27" style="edgeStyle=none;curved=1;rounded=0;orthogonalLoop=1;jettySize=auto;html=1;exitX=0.5;exitY=1;exitDx=0;exitDy=0;entryX=0.5;entryY=0;entryDx=0;entryDy=0;fontSize=12;startSize=8;endSize=8;" parent="1" source="hU77d2BvjfXM9u0-Pfxk-13" target="hU77d2BvjfXM9u0-Pfxk-23" edge="1">
          <mxGeometry relative="1" as="geometry" />
        </mxCell>
        <mxCell id="hU77d2BvjfXM9u0-Pfxk-13" value="Food_Category" style="rounded=1;whiteSpace=wrap;html=1;fontSize=16;" parent="1" vertex="1">
          <mxGeometry x="-1152.25" y="599" width="120.5" height="41" as="geometry" />
        </mxCell>
        <mxCell id="hU77d2BvjfXM9u0-Pfxk-18" value="" style="endArrow=classic;html=1;rounded=0;fontSize=12;startSize=8;endSize=8;edgeStyle=none;curved=1;entryX=1;entryY=0.5;entryDx=0;entryDy=0;exitX=0.5;exitY=0.5;exitDx=0;exitDy=0;exitPerimeter=0;" parent="1" source="hU77d2BvjfXM9u0-Pfxk-4" target="hU77d2BvjfXM9u0-Pfxk-12" edge="1">
          <mxGeometry relative="1" as="geometry">
            <mxPoint x="-995" y="619" as="sourcePoint" />
            <mxPoint x="-895" y="619" as="targetPoint" />
            <Array as="points">
              <mxPoint x="-974" y="507" />
            </Array>
          </mxGeometry>
        </mxCell>
        <mxCell id="hU77d2BvjfXM9u0-Pfxk-19" value="&amp;lt;&amp;lt;extend&amp;gt;&amp;gt;" style="edgeLabel;resizable=0;html=1;align=center;verticalAlign=middle;fontSize=16;rotation=-30;" parent="hU77d2BvjfXM9u0-Pfxk-18" connectable="0" vertex="1">
          <mxGeometry relative="1" as="geometry" />
        </mxCell>
        <mxCell id="hU77d2BvjfXM9u0-Pfxk-21" value="" style="endArrow=classic;html=1;rounded=0;fontSize=12;startSize=8;endSize=8;edgeStyle=none;curved=1;entryX=1;entryY=0.5;entryDx=0;entryDy=0;exitX=0.5;exitY=0.5;exitDx=0;exitDy=0;exitPerimeter=0;" parent="1" source="hU77d2BvjfXM9u0-Pfxk-4" target="hU77d2BvjfXM9u0-Pfxk-13" edge="1">
          <mxGeometry relative="1" as="geometry">
            <mxPoint x="-995" y="619" as="sourcePoint" />
            <mxPoint x="-971" y="600" as="targetPoint" />
            <Array as="points">
              <mxPoint x="-970" y="541" />
            </Array>
          </mxGeometry>
        </mxCell>
        <mxCell id="hU77d2BvjfXM9u0-Pfxk-22" value="&amp;lt;&amp;lt;extend&amp;gt;&amp;gt;" style="edgeLabel;resizable=0;html=1;align=center;verticalAlign=middle;fontSize=16;rotation=-45;" parent="hU77d2BvjfXM9u0-Pfxk-21" connectable="0" vertex="1">
          <mxGeometry relative="1" as="geometry">
            <mxPoint x="-8" y="18" as="offset" />
          </mxGeometry>
        </mxCell>
        <mxCell id="hU77d2BvjfXM9u0-Pfxk-30" style="edgeStyle=none;curved=1;rounded=0;orthogonalLoop=1;jettySize=auto;html=1;exitX=0.5;exitY=1;exitDx=0;exitDy=0;entryX=0.5;entryY=0;entryDx=0;entryDy=0;fontSize=12;startSize=8;endSize=8;" parent="1" source="hU77d2BvjfXM9u0-Pfxk-23" target="hU77d2BvjfXM9u0-Pfxk-28" edge="1">
          <mxGeometry relative="1" as="geometry" />
        </mxCell>
        <mxCell id="hU77d2BvjfXM9u0-Pfxk-23" value="Food_Item" style="rounded=1;whiteSpace=wrap;html=1;fontSize=16;" parent="1" vertex="1">
          <mxGeometry x="-1152.25" y="666" width="120.5" height="41" as="geometry" />
        </mxCell>
        <mxCell id="hU77d2BvjfXM9u0-Pfxk-25" value="" style="endArrow=classic;html=1;rounded=0;fontSize=12;startSize=8;endSize=8;edgeStyle=none;curved=1;entryX=1;entryY=0.5;entryDx=0;entryDy=0;" parent="1" target="hU77d2BvjfXM9u0-Pfxk-23" edge="1">
          <mxGeometry relative="1" as="geometry">
            <mxPoint x="-896" y="470" as="sourcePoint" />
            <mxPoint x="-955" y="619" as="targetPoint" />
            <Array as="points">
              <mxPoint x="-757" y="585" />
            </Array>
          </mxGeometry>
        </mxCell>
        <mxCell id="hU77d2BvjfXM9u0-Pfxk-26" value="&amp;lt;&amp;lt;extend&amp;gt;&amp;gt;" style="edgeLabel;resizable=0;html=1;align=center;verticalAlign=middle;fontSize=16;rotation=-40;" parent="hU77d2BvjfXM9u0-Pfxk-25" connectable="0" vertex="1">
          <mxGeometry relative="1" as="geometry">
            <mxPoint x="-84" y="6" as="offset" />
          </mxGeometry>
        </mxCell>
        <mxCell id="hU77d2BvjfXM9u0-Pfxk-28" value="Order" style="rounded=1;whiteSpace=wrap;html=1;fontSize=16;" parent="1" vertex="1">
          <mxGeometry x="-1152.25" y="733" width="120.5" height="41" as="geometry" />
        </mxCell>
        <mxCell id="hU77d2BvjfXM9u0-Pfxk-31" value="" style="endArrow=classic;html=1;rounded=0;fontSize=12;startSize=8;endSize=8;edgeStyle=none;curved=1;entryX=1;entryY=0.5;entryDx=0;entryDy=0;" parent="1" target="hU77d2BvjfXM9u0-Pfxk-28" edge="1">
          <mxGeometry width="50" height="50" relative="1" as="geometry">
            <mxPoint x="-895" y="471" as="sourcePoint" />
            <mxPoint x="-980" y="594" as="targetPoint" />
            <Array as="points">
              <mxPoint x="-744" y="602" />
            </Array>
          </mxGeometry>
        </mxCell>
        <mxCell id="hU77d2BvjfXM9u0-Pfxk-32" value="" style="endArrow=none;dashed=1;html=1;dashPattern=1 3;strokeWidth=2;rounded=0;fontSize=12;startSize=8;endSize=8;edgeStyle=none;curved=1;exitX=1;exitY=0.5;exitDx=0;exitDy=0;" parent="1" source="hU77d2BvjfXM9u0-Pfxk-28" edge="1">
          <mxGeometry width="50" height="50" relative="1" as="geometry">
            <mxPoint x="-1017" y="774" as="sourcePoint" />
            <mxPoint x="-966" y="753" as="targetPoint" />
          </mxGeometry>
        </mxCell>
        <mxCell id="hU77d2BvjfXM9u0-Pfxk-34" value="Local" style="ellipse;whiteSpace=wrap;html=1;fontSize=16;" parent="1" vertex="1">
          <mxGeometry x="-963" y="731.5" width="112" height="44" as="geometry" />
        </mxCell>
        <mxCell id="hU77d2BvjfXM9u0-Pfxk-38" style="edgeStyle=none;curved=1;rounded=0;orthogonalLoop=1;jettySize=auto;html=1;exitX=0.5;exitY=1;exitDx=0;exitDy=0;entryX=0.5;entryY=0;entryDx=0;entryDy=0;fontSize=12;startSize=8;endSize=8;" parent="1" source="hU77d2BvjfXM9u0-Pfxk-35" target="hU77d2BvjfXM9u0-Pfxk-37" edge="1">
          <mxGeometry relative="1" as="geometry" />
        </mxCell>
        <mxCell id="hU77d2BvjfXM9u0-Pfxk-35" value="Status" style="ellipse;whiteSpace=wrap;html=1;fontSize=16;" parent="1" vertex="1">
          <mxGeometry x="-963" y="794.5" width="112" height="44" as="geometry" />
        </mxCell>
        <mxCell id="hU77d2BvjfXM9u0-Pfxk-36" value="" style="endArrow=none;dashed=1;html=1;rounded=0;fontSize=12;startSize=8;endSize=8;edgeStyle=none;curved=1;exitX=1;exitY=0.5;exitDx=0;exitDy=0;entryX=0.034;entryY=0.646;entryDx=0;entryDy=0;entryPerimeter=0;" parent="1" source="hU77d2BvjfXM9u0-Pfxk-28" target="hU77d2BvjfXM9u0-Pfxk-35" edge="1">
          <mxGeometry width="50" height="50" relative="1" as="geometry">
            <mxPoint x="-917" y="837" as="sourcePoint" />
            <mxPoint x="-867" y="787" as="targetPoint" />
          </mxGeometry>
        </mxCell>
        <mxCell id="mNHQuMKC3dcyN6bttDQ8-3" style="edgeStyle=none;curved=1;rounded=0;orthogonalLoop=1;jettySize=auto;html=1;exitX=0.5;exitY=1;exitDx=0;exitDy=0;entryX=0.5;entryY=0;entryDx=0;entryDy=0;fontSize=12;startSize=8;endSize=8;" edge="1" parent="1" source="hU77d2BvjfXM9u0-Pfxk-37" target="mNHQuMKC3dcyN6bttDQ8-2">
          <mxGeometry relative="1" as="geometry" />
        </mxCell>
        <mxCell id="hU77d2BvjfXM9u0-Pfxk-37" value="Paid/Unpaid" style="rhombus;whiteSpace=wrap;html=1;fontSize=16;" parent="1" vertex="1">
          <mxGeometry x="-970.5" y="857" width="127" height="60" as="geometry" />
        </mxCell>
        <mxCell id="hU77d2BvjfXM9u0-Pfxk-39" value="Session" style="rounded=1;whiteSpace=wrap;html=1;fontSize=16;" parent="1" vertex="1">
          <mxGeometry x="-764" y="450" width="119" height="40" as="geometry" />
        </mxCell>
        <mxCell id="hU77d2BvjfXM9u0-Pfxk-40" value="" style="endArrow=classic;html=1;rounded=0;fontSize=12;startSize=8;endSize=8;edgeStyle=none;curved=1;exitX=0.5;exitY=0.5;exitDx=0;exitDy=0;exitPerimeter=0;entryX=0;entryY=0.5;entryDx=0;entryDy=0;" parent="1" source="hU77d2BvjfXM9u0-Pfxk-4" target="hU77d2BvjfXM9u0-Pfxk-39" edge="1">
          <mxGeometry relative="1" as="geometry">
            <mxPoint x="-777" y="565" as="sourcePoint" />
            <mxPoint x="-770" y="503" as="targetPoint" />
          </mxGeometry>
        </mxCell>
        <mxCell id="hU77d2BvjfXM9u0-Pfxk-41" value="&amp;lt;&amp;lt;extend&amp;gt;&amp;gt;" style="edgeLabel;resizable=0;html=1;align=center;verticalAlign=middle;fontSize=16;" parent="hU77d2BvjfXM9u0-Pfxk-40" connectable="0" vertex="1">
          <mxGeometry relative="1" as="geometry" />
        </mxCell>
        <mxCell id="hU77d2BvjfXM9u0-Pfxk-47" value="Customer" style="swimlane;fontStyle=0;childLayout=stackLayout;horizontal=1;startSize=26;fillColor=none;horizontalStack=0;resizeParent=1;resizeParentMax=0;resizeLast=0;collapsible=1;marginBottom=0;whiteSpace=wrap;html=1;fontSize=16;" parent="1" vertex="1">
          <mxGeometry x="-1882" y="923" width="258" height="188" as="geometry" />
        </mxCell>
        <mxCell id="hU77d2BvjfXM9u0-Pfxk-48" value="~ id: int" style="text;strokeColor=none;fillColor=none;align=left;verticalAlign=top;spacingLeft=4;spacingRight=4;overflow=hidden;rotatable=0;points=[[0,0.5],[1,0.5]];portConstraint=eastwest;whiteSpace=wrap;html=1;fontSize=16;" parent="hU77d2BvjfXM9u0-Pfxk-47" vertex="1">
          <mxGeometry y="26" width="258" height="26" as="geometry" />
        </mxCell>
        <mxCell id="hU77d2BvjfXM9u0-Pfxk-51" value="+ name: varchar" style="text;strokeColor=none;fillColor=none;align=left;verticalAlign=top;spacingLeft=4;spacingRight=4;overflow=hidden;rotatable=0;points=[[0,0.5],[1,0.5]];portConstraint=eastwest;whiteSpace=wrap;html=1;fontSize=16;" parent="hU77d2BvjfXM9u0-Pfxk-47" vertex="1">
          <mxGeometry y="52" width="258" height="34" as="geometry" />
        </mxCell>
        <mxCell id="hU77d2BvjfXM9u0-Pfxk-49" value="+ phoneNumber: varchar" style="text;strokeColor=none;fillColor=none;align=left;verticalAlign=top;spacingLeft=4;spacingRight=4;overflow=hidden;rotatable=0;points=[[0,0.5],[1,0.5]];portConstraint=eastwest;whiteSpace=wrap;html=1;fontSize=16;" parent="hU77d2BvjfXM9u0-Pfxk-47" vertex="1">
          <mxGeometry y="86" width="258" height="38" as="geometry" />
        </mxCell>
        <mxCell id="hU77d2BvjfXM9u0-Pfxk-52" value="+ address: varchar" style="text;strokeColor=none;fillColor=none;align=left;verticalAlign=top;spacingLeft=4;spacingRight=4;overflow=hidden;rotatable=0;points=[[0,0.5],[1,0.5]];portConstraint=eastwest;whiteSpace=wrap;html=1;fontSize=16;" parent="hU77d2BvjfXM9u0-Pfxk-47" vertex="1">
          <mxGeometry y="124" width="258" height="35" as="geometry" />
        </mxCell>
        <mxCell id="hU77d2BvjfXM9u0-Pfxk-58" value="+ birthday: timestamp" style="text;strokeColor=none;fillColor=none;align=left;verticalAlign=top;spacingLeft=4;spacingRight=4;overflow=hidden;rotatable=0;points=[[0,0.5],[1,0.5]];portConstraint=eastwest;whiteSpace=wrap;html=1;fontSize=16;" parent="hU77d2BvjfXM9u0-Pfxk-47" vertex="1">
          <mxGeometry y="159" width="258" height="29" as="geometry" />
        </mxCell>
        <mxCell id="hU77d2BvjfXM9u0-Pfxk-59" value="Employee" style="swimlane;fontStyle=0;childLayout=stackLayout;horizontal=1;startSize=26;fillColor=none;horizontalStack=0;resizeParent=1;resizeParentMax=0;resizeLast=0;collapsible=1;marginBottom=0;whiteSpace=wrap;html=1;fontSize=16;" parent="1" vertex="1">
          <mxGeometry x="-1882" y="1151" width="258" height="246" as="geometry" />
        </mxCell>
        <mxCell id="hU77d2BvjfXM9u0-Pfxk-60" value="~ id: int" style="text;strokeColor=none;fillColor=none;align=left;verticalAlign=top;spacingLeft=4;spacingRight=4;overflow=hidden;rotatable=0;points=[[0,0.5],[1,0.5]];portConstraint=eastwest;whiteSpace=wrap;html=1;fontSize=16;" parent="hU77d2BvjfXM9u0-Pfxk-59" vertex="1">
          <mxGeometry y="26" width="258" height="26" as="geometry" />
        </mxCell>
        <mxCell id="hU77d2BvjfXM9u0-Pfxk-61" value="+ username: varchar" style="text;strokeColor=none;fillColor=none;align=left;verticalAlign=top;spacingLeft=4;spacingRight=4;overflow=hidden;rotatable=0;points=[[0,0.5],[1,0.5]];portConstraint=eastwest;whiteSpace=wrap;html=1;fontSize=16;" parent="hU77d2BvjfXM9u0-Pfxk-59" vertex="1">
          <mxGeometry y="52" width="258" height="34" as="geometry" />
        </mxCell>
        <mxCell id="hU77d2BvjfXM9u0-Pfxk-62" value="+ password: varchar" style="text;strokeColor=none;fillColor=none;align=left;verticalAlign=top;spacingLeft=4;spacingRight=4;overflow=hidden;rotatable=0;points=[[0,0.5],[1,0.5]];portConstraint=eastwest;whiteSpace=wrap;html=1;fontSize=16;" parent="hU77d2BvjfXM9u0-Pfxk-59" vertex="1">
          <mxGeometry y="86" width="258" height="38" as="geometry" />
        </mxCell>
        <mxCell id="hU77d2BvjfXM9u0-Pfxk-63" value="+ phoneNumber: varchar" style="text;strokeColor=none;fillColor=none;align=left;verticalAlign=top;spacingLeft=4;spacingRight=4;overflow=hidden;rotatable=0;points=[[0,0.5],[1,0.5]];portConstraint=eastwest;whiteSpace=wrap;html=1;fontSize=16;" parent="hU77d2BvjfXM9u0-Pfxk-59" vertex="1">
          <mxGeometry y="124" width="258" height="35" as="geometry" />
        </mxCell>
        <mxCell id="hU77d2BvjfXM9u0-Pfxk-64" value="+ startDate: timestamp" style="text;strokeColor=none;fillColor=none;align=left;verticalAlign=top;spacingLeft=4;spacingRight=4;overflow=hidden;rotatable=0;points=[[0,0.5],[1,0.5]];portConstraint=eastwest;whiteSpace=wrap;html=1;fontSize=16;" parent="hU77d2BvjfXM9u0-Pfxk-59" vertex="1">
          <mxGeometry y="159" width="258" height="29" as="geometry" />
        </mxCell>
        <mxCell id="hU77d2BvjfXM9u0-Pfxk-65" value="+ permission: varchar" style="text;strokeColor=none;fillColor=none;align=left;verticalAlign=top;spacingLeft=4;spacingRight=4;overflow=hidden;rotatable=0;points=[[0,0.5],[1,0.5]];portConstraint=eastwest;whiteSpace=wrap;html=1;fontSize=16;" parent="hU77d2BvjfXM9u0-Pfxk-59" vertex="1">
          <mxGeometry y="188" width="258" height="29" as="geometry" />
        </mxCell>
        <mxCell id="hU77d2BvjfXM9u0-Pfxk-66" value="+ salary: int" style="text;strokeColor=none;fillColor=none;align=left;verticalAlign=top;spacingLeft=4;spacingRight=4;overflow=hidden;rotatable=0;points=[[0,0.5],[1,0.5]];portConstraint=eastwest;whiteSpace=wrap;html=1;fontSize=16;" parent="hU77d2BvjfXM9u0-Pfxk-59" vertex="1">
          <mxGeometry y="217" width="258" height="29" as="geometry" />
        </mxCell>
        <mxCell id="hU77d2BvjfXM9u0-Pfxk-67" value="food_category" style="swimlane;fontStyle=0;childLayout=stackLayout;horizontal=1;startSize=26;fillColor=none;horizontalStack=0;resizeParent=1;resizeParentMax=0;resizeLast=0;collapsible=1;marginBottom=0;whiteSpace=wrap;html=1;fontSize=16;" parent="1" vertex="1">
          <mxGeometry x="-1586" y="1151" width="258" height="124" as="geometry" />
        </mxCell>
        <mxCell id="hU77d2BvjfXM9u0-Pfxk-68" value="~ id: int" style="text;strokeColor=none;fillColor=none;align=left;verticalAlign=top;spacingLeft=4;spacingRight=4;overflow=hidden;rotatable=0;points=[[0,0.5],[1,0.5]];portConstraint=eastwest;whiteSpace=wrap;html=1;fontSize=16;" parent="hU77d2BvjfXM9u0-Pfxk-67" vertex="1">
          <mxGeometry y="26" width="258" height="26" as="geometry" />
        </mxCell>
        <mxCell id="hU77d2BvjfXM9u0-Pfxk-69" value="+ name: varchar" style="text;strokeColor=none;fillColor=none;align=left;verticalAlign=top;spacingLeft=4;spacingRight=4;overflow=hidden;rotatable=0;points=[[0,0.5],[1,0.5]];portConstraint=eastwest;whiteSpace=wrap;html=1;fontSize=16;" parent="hU77d2BvjfXM9u0-Pfxk-67" vertex="1">
          <mxGeometry y="52" width="258" height="34" as="geometry" />
        </mxCell>
        <mxCell id="hU77d2BvjfXM9u0-Pfxk-70" value="+ slug: varchar" style="text;strokeColor=none;fillColor=none;align=left;verticalAlign=top;spacingLeft=4;spacingRight=4;overflow=hidden;rotatable=0;points=[[0,0.5],[1,0.5]];portConstraint=eastwest;whiteSpace=wrap;html=1;fontSize=16;" parent="hU77d2BvjfXM9u0-Pfxk-67" vertex="1">
          <mxGeometry y="86" width="258" height="38" as="geometry" />
        </mxCell>
        <mxCell id="hU77d2BvjfXM9u0-Pfxk-75" value="food_item" style="swimlane;fontStyle=0;childLayout=stackLayout;horizontal=1;startSize=26;fillColor=none;horizontalStack=0;resizeParent=1;resizeParentMax=0;resizeLast=0;collapsible=1;marginBottom=0;whiteSpace=wrap;html=1;fontSize=16;" parent="1" vertex="1">
          <mxGeometry x="-1586" y="1306" width="258" height="276" as="geometry" />
        </mxCell>
        <mxCell id="hU77d2BvjfXM9u0-Pfxk-76" value="~ id: int" style="text;strokeColor=none;fillColor=none;align=left;verticalAlign=top;spacingLeft=4;spacingRight=4;overflow=hidden;rotatable=0;points=[[0,0.5],[1,0.5]];portConstraint=eastwest;whiteSpace=wrap;html=1;fontSize=16;" parent="hU77d2BvjfXM9u0-Pfxk-75" vertex="1">
          <mxGeometry y="26" width="258" height="26" as="geometry" />
        </mxCell>
        <mxCell id="hU77d2BvjfXM9u0-Pfxk-77" value="+ name: varchar" style="text;strokeColor=none;fillColor=none;align=left;verticalAlign=top;spacingLeft=4;spacingRight=4;overflow=hidden;rotatable=0;points=[[0,0.5],[1,0.5]];portConstraint=eastwest;whiteSpace=wrap;html=1;fontSize=16;" parent="hU77d2BvjfXM9u0-Pfxk-75" vertex="1">
          <mxGeometry y="52" width="258" height="34" as="geometry" />
        </mxCell>
        <mxCell id="hU77d2BvjfXM9u0-Pfxk-79" value="+ description: varchar" style="text;strokeColor=none;fillColor=none;align=left;verticalAlign=top;spacingLeft=4;spacingRight=4;overflow=hidden;rotatable=0;points=[[0,0.5],[1,0.5]];portConstraint=eastwest;whiteSpace=wrap;html=1;fontSize=16;" parent="hU77d2BvjfXM9u0-Pfxk-75" vertex="1">
          <mxGeometry y="86" width="258" height="38" as="geometry" />
        </mxCell>
        <mxCell id="hU77d2BvjfXM9u0-Pfxk-78" value="+ urlmage: varchar" style="text;strokeColor=none;fillColor=none;align=left;verticalAlign=top;spacingLeft=4;spacingRight=4;overflow=hidden;rotatable=0;points=[[0,0.5],[1,0.5]];portConstraint=eastwest;whiteSpace=wrap;html=1;fontSize=16;" parent="hU77d2BvjfXM9u0-Pfxk-75" vertex="1">
          <mxGeometry y="124" width="258" height="38" as="geometry" />
        </mxCell>
        <mxCell id="hU77d2BvjfXM9u0-Pfxk-80" value="+ unitName: varchar" style="text;strokeColor=none;fillColor=none;align=left;verticalAlign=top;spacingLeft=4;spacingRight=4;overflow=hidden;rotatable=0;points=[[0,0.5],[1,0.5]];portConstraint=eastwest;whiteSpace=wrap;html=1;fontSize=16;" parent="hU77d2BvjfXM9u0-Pfxk-75" vertex="1">
          <mxGeometry y="162" width="258" height="38" as="geometry" />
        </mxCell>
        <mxCell id="hU77d2BvjfXM9u0-Pfxk-82" value="+ unitPrice: bigint" style="text;strokeColor=none;fillColor=none;align=left;verticalAlign=top;spacingLeft=4;spacingRight=4;overflow=hidden;rotatable=0;points=[[0,0.5],[1,0.5]];portConstraint=eastwest;whiteSpace=wrap;html=1;fontSize=16;" parent="hU77d2BvjfXM9u0-Pfxk-75" vertex="1">
          <mxGeometry y="200" width="258" height="38" as="geometry" />
        </mxCell>
        <mxCell id="hU77d2BvjfXM9u0-Pfxk-81" value="+ idCategory: int" style="text;strokeColor=none;fillColor=none;align=left;verticalAlign=top;spacingLeft=4;spacingRight=4;overflow=hidden;rotatable=0;points=[[0,0.5],[1,0.5]];portConstraint=eastwest;whiteSpace=wrap;html=1;fontSize=16;" parent="hU77d2BvjfXM9u0-Pfxk-75" vertex="1">
          <mxGeometry y="238" width="258" height="38" as="geometry" />
        </mxCell>
        <mxCell id="hU77d2BvjfXM9u0-Pfxk-83" value="Order" style="swimlane;fontStyle=0;childLayout=stackLayout;horizontal=1;startSize=26;fillColor=none;horizontalStack=0;resizeParent=1;resizeParentMax=0;resizeLast=0;collapsible=1;marginBottom=0;whiteSpace=wrap;html=1;fontSize=16;" parent="1" vertex="1">
          <mxGeometry x="-1276" y="1151" width="258" height="390" as="geometry" />
        </mxCell>
        <mxCell id="hU77d2BvjfXM9u0-Pfxk-84" value="~ id: int" style="text;strokeColor=none;fillColor=none;align=left;verticalAlign=top;spacingLeft=4;spacingRight=4;overflow=hidden;rotatable=0;points=[[0,0.5],[1,0.5]];portConstraint=eastwest;whiteSpace=wrap;html=1;fontSize=16;" parent="hU77d2BvjfXM9u0-Pfxk-83" vertex="1">
          <mxGeometry y="26" width="258" height="26" as="geometry" />
        </mxCell>
        <mxCell id="hU77d2BvjfXM9u0-Pfxk-85" value="+ idEmployee: int" style="text;strokeColor=none;fillColor=none;align=left;verticalAlign=top;spacingLeft=4;spacingRight=4;overflow=hidden;rotatable=0;points=[[0,0.5],[1,0.5]];portConstraint=eastwest;whiteSpace=wrap;html=1;fontSize=16;" parent="hU77d2BvjfXM9u0-Pfxk-83" vertex="1">
          <mxGeometry y="52" width="258" height="34" as="geometry" />
        </mxCell>
        <mxCell id="hU77d2BvjfXM9u0-Pfxk-86" value="+ idTable: int" style="text;strokeColor=none;fillColor=none;align=left;verticalAlign=top;spacingLeft=4;spacingRight=4;overflow=hidden;rotatable=0;points=[[0,0.5],[1,0.5]];portConstraint=eastwest;whiteSpace=wrap;html=1;fontSize=16;" parent="hU77d2BvjfXM9u0-Pfxk-83" vertex="1">
          <mxGeometry y="86" width="258" height="38" as="geometry" />
        </mxCell>
        <mxCell id="hU77d2BvjfXM9u0-Pfxk-87" value="+ type: varchar" style="text;strokeColor=none;fillColor=none;align=left;verticalAlign=top;spacingLeft=4;spacingRight=4;overflow=hidden;rotatable=0;points=[[0,0.5],[1,0.5]];portConstraint=eastwest;whiteSpace=wrap;html=1;fontSize=16;" parent="hU77d2BvjfXM9u0-Pfxk-83" vertex="1">
          <mxGeometry y="124" width="258" height="38" as="geometry" />
        </mxCell>
        <mxCell id="hU77d2BvjfXM9u0-Pfxk-88" value="+ status: varchar" style="text;strokeColor=none;fillColor=none;align=left;verticalAlign=top;spacingLeft=4;spacingRight=4;overflow=hidden;rotatable=0;points=[[0,0.5],[1,0.5]];portConstraint=eastwest;whiteSpace=wrap;html=1;fontSize=16;" parent="hU77d2BvjfXM9u0-Pfxk-83" vertex="1">
          <mxGeometry y="162" width="258" height="38" as="geometry" />
        </mxCell>
        <mxCell id="hU77d2BvjfXM9u0-Pfxk-89" value="+ orderDate: timestamp" style="text;strokeColor=none;fillColor=none;align=left;verticalAlign=top;spacingLeft=4;spacingRight=4;overflow=hidden;rotatable=0;points=[[0,0.5],[1,0.5]];portConstraint=eastwest;whiteSpace=wrap;html=1;fontSize=16;" parent="hU77d2BvjfXM9u0-Pfxk-83" vertex="1">
          <mxGeometry y="200" width="258" height="38" as="geometry" />
        </mxCell>
        <mxCell id="hU77d2BvjfXM9u0-Pfxk-91" value="+ payDate: timpstamp" style="text;strokeColor=none;fillColor=none;align=left;verticalAlign=top;spacingLeft=4;spacingRight=4;overflow=hidden;rotatable=0;points=[[0,0.5],[1,0.5]];portConstraint=eastwest;whiteSpace=wrap;html=1;fontSize=16;" parent="hU77d2BvjfXM9u0-Pfxk-83" vertex="1">
          <mxGeometry y="238" width="258" height="38" as="geometry" />
        </mxCell>
        <mxCell id="hU77d2BvjfXM9u0-Pfxk-90" value="+ paidAmount: bigint&lt;br&gt;" style="text;strokeColor=none;fillColor=none;align=left;verticalAlign=top;spacingLeft=4;spacingRight=4;overflow=hidden;rotatable=0;points=[[0,0.5],[1,0.5]];portConstraint=eastwest;whiteSpace=wrap;html=1;fontSize=16;" parent="hU77d2BvjfXM9u0-Pfxk-83" vertex="1">
          <mxGeometry y="276" width="258" height="38" as="geometry" />
        </mxCell>
        <mxCell id="hU77d2BvjfXM9u0-Pfxk-92" value="totalAmount: bignint" style="text;strokeColor=none;fillColor=none;align=left;verticalAlign=top;spacingLeft=4;spacingRight=4;overflow=hidden;rotatable=0;points=[[0,0.5],[1,0.5]];portConstraint=eastwest;whiteSpace=wrap;html=1;fontSize=16;" parent="hU77d2BvjfXM9u0-Pfxk-83" vertex="1">
          <mxGeometry y="314" width="258" height="38" as="geometry" />
        </mxCell>
        <mxCell id="hU77d2BvjfXM9u0-Pfxk-93" value="discount: int" style="text;strokeColor=none;fillColor=none;align=left;verticalAlign=top;spacingLeft=4;spacingRight=4;overflow=hidden;rotatable=0;points=[[0,0.5],[1,0.5]];portConstraint=eastwest;whiteSpace=wrap;html=1;fontSize=16;" parent="hU77d2BvjfXM9u0-Pfxk-83" vertex="1">
          <mxGeometry y="352" width="258" height="38" as="geometry" />
        </mxCell>
        <mxCell id="hU77d2BvjfXM9u0-Pfxk-94" value="Session" style="swimlane;fontStyle=0;childLayout=stackLayout;horizontal=1;startSize=26;fillColor=none;horizontalStack=0;resizeParent=1;resizeParentMax=0;resizeLast=0;collapsible=1;marginBottom=0;whiteSpace=wrap;html=1;fontSize=16;" parent="1" vertex="1">
          <mxGeometry x="-1882" y="1424" width="258" height="188" as="geometry" />
        </mxCell>
        <mxCell id="hU77d2BvjfXM9u0-Pfxk-95" value="~ id: int" style="text;strokeColor=none;fillColor=none;align=left;verticalAlign=top;spacingLeft=4;spacingRight=4;overflow=hidden;rotatable=0;points=[[0,0.5],[1,0.5]];portConstraint=eastwest;whiteSpace=wrap;html=1;fontSize=16;" parent="hU77d2BvjfXM9u0-Pfxk-94" vertex="1">
          <mxGeometry y="26" width="258" height="26" as="geometry" />
        </mxCell>
        <mxCell id="hU77d2BvjfXM9u0-Pfxk-96" value="+ idEmployee: int" style="text;strokeColor=none;fillColor=none;align=left;verticalAlign=top;spacingLeft=4;spacingRight=4;overflow=hidden;rotatable=0;points=[[0,0.5],[1,0.5]];portConstraint=eastwest;whiteSpace=wrap;html=1;fontSize=16;" parent="hU77d2BvjfXM9u0-Pfxk-94" vertex="1">
          <mxGeometry y="52" width="258" height="34" as="geometry" />
        </mxCell>
        <mxCell id="hU77d2BvjfXM9u0-Pfxk-97" value="+ startTime: timestamp" style="text;strokeColor=none;fillColor=none;align=left;verticalAlign=top;spacingLeft=4;spacingRight=4;overflow=hidden;rotatable=0;points=[[0,0.5],[1,0.5]];portConstraint=eastwest;whiteSpace=wrap;html=1;fontSize=16;" parent="hU77d2BvjfXM9u0-Pfxk-94" vertex="1">
          <mxGeometry y="86" width="258" height="38" as="geometry" />
        </mxCell>
        <mxCell id="hU77d2BvjfXM9u0-Pfxk-98" value="+ endTime: timestamp" style="text;strokeColor=none;fillColor=none;align=left;verticalAlign=top;spacingLeft=4;spacingRight=4;overflow=hidden;rotatable=0;points=[[0,0.5],[1,0.5]];portConstraint=eastwest;whiteSpace=wrap;html=1;fontSize=16;" parent="hU77d2BvjfXM9u0-Pfxk-94" vertex="1">
          <mxGeometry y="124" width="258" height="35" as="geometry" />
        </mxCell>
        <mxCell id="hU77d2BvjfXM9u0-Pfxk-99" value="+ message: varchar" style="text;strokeColor=none;fillColor=none;align=left;verticalAlign=top;spacingLeft=4;spacingRight=4;overflow=hidden;rotatable=0;points=[[0,0.5],[1,0.5]];portConstraint=eastwest;whiteSpace=wrap;html=1;fontSize=16;" parent="hU77d2BvjfXM9u0-Pfxk-94" vertex="1">
          <mxGeometry y="159" width="258" height="29" as="geometry" />
        </mxCell>
        <mxCell id="hU77d2BvjfXM9u0-Pfxk-102" value="" style="endArrow=open;endFill=1;endSize=12;html=1;rounded=0;fontSize=12;edgeStyle=none;curved=1;entryX=0.5;entryY=0;entryDx=0;entryDy=0;" parent="1" source="hU77d2BvjfXM9u0-Pfxk-58" target="hU77d2BvjfXM9u0-Pfxk-59" edge="1">
          <mxGeometry width="160" relative="1" as="geometry">
            <mxPoint x="-1625" y="1247" as="sourcePoint" />
            <mxPoint x="-1465" y="1247" as="targetPoint" />
          </mxGeometry>
        </mxCell>
        <mxCell id="hU77d2BvjfXM9u0-Pfxk-103" value="" style="endArrow=open;endFill=1;endSize=12;html=1;rounded=0;fontSize=12;edgeStyle=none;curved=1;" parent="1" edge="1">
          <mxGeometry width="160" relative="1" as="geometry">
            <mxPoint x="-1753.34" y="1397" as="sourcePoint" />
            <mxPoint x="-1753" y="1424" as="targetPoint" />
          </mxGeometry>
        </mxCell>
        <mxCell id="hU77d2BvjfXM9u0-Pfxk-104" style="edgeStyle=none;curved=1;rounded=0;orthogonalLoop=1;jettySize=auto;html=1;exitX=1;exitY=0.5;exitDx=0;exitDy=0;entryX=0;entryY=0.5;entryDx=0;entryDy=0;fontSize=12;startSize=8;endSize=8;" parent="1" source="hU77d2BvjfXM9u0-Pfxk-62" target="hU77d2BvjfXM9u0-Pfxk-70" edge="1">
          <mxGeometry relative="1" as="geometry" />
        </mxCell>
        <mxCell id="hU77d2BvjfXM9u0-Pfxk-105" style="edgeStyle=none;curved=1;rounded=0;orthogonalLoop=1;jettySize=auto;html=1;exitX=1;exitY=0.5;exitDx=0;exitDy=0;entryX=0;entryY=0.5;entryDx=0;entryDy=0;fontSize=12;startSize=8;endSize=8;" parent="1" source="hU77d2BvjfXM9u0-Pfxk-69" target="hU77d2BvjfXM9u0-Pfxk-85" edge="1">
          <mxGeometry relative="1" as="geometry" />
        </mxCell>
        <mxCell id="hU77d2BvjfXM9u0-Pfxk-106" value="" style="endArrow=open;endFill=1;endSize=12;html=1;rounded=0;fontSize=12;edgeStyle=none;curved=1;" parent="1" edge="1">
          <mxGeometry width="160" relative="1" as="geometry">
            <mxPoint x="-1457.29" y="1275" as="sourcePoint" />
            <mxPoint x="-1456.95" y="1302" as="targetPoint" />
          </mxGeometry>
        </mxCell>
        <mxCell id="mNHQuMKC3dcyN6bttDQ8-2" value="history" style="rounded=1;whiteSpace=wrap;html=1;fontSize=16;" vertex="1" parent="1">
          <mxGeometry x="-967" y="936" width="120" height="60" as="geometry" />
        </mxCell>
        <mxCell id="mNHQuMKC3dcyN6bttDQ8-4" value="AddCustomer" style="rounded=1;whiteSpace=wrap;html=1;fontSize=16;" vertex="1" parent="1">
          <mxGeometry x="-764.5" y="522.5" width="120" height="60" as="geometry" />
        </mxCell>
        <mxCell id="mNHQuMKC3dcyN6bttDQ8-8" style="edgeStyle=none;curved=1;rounded=0;orthogonalLoop=1;jettySize=auto;html=1;exitX=0;exitY=0.5;exitDx=0;exitDy=0;entryX=0.5;entryY=0;entryDx=0;entryDy=0;fontSize=12;startSize=8;endSize=8;" edge="1" parent="1" source="mNHQuMKC3dcyN6bttDQ8-6" target="hU77d2BvjfXM9u0-Pfxk-2">
          <mxGeometry relative="1" as="geometry">
            <Array as="points">
              <mxPoint x="-1044" y="371" />
            </Array>
          </mxGeometry>
        </mxCell>
        <mxCell id="mNHQuMKC3dcyN6bttDQ8-6" value="Login" style="rounded=1;whiteSpace=wrap;html=1;fontSize=16;" vertex="1" parent="1">
          <mxGeometry x="-956" y="352" width="120" height="60" as="geometry" />
        </mxCell>
      </root>
    </mxGraphModel>
  </diagram>
</mxfile>
